<svg
  width="126"
  height="45"
  viewBox="0 0 126 45"
  xmlns="http://www.w3.org/2000/svg"
><g fill="none"><path fill="#FFCF0F" d="M106.104 2.634l-7.03.932 4.36 5.516z"/><path fill="#FF1F39" d="M106.81 2.54l-.706.093-2.669 6.449 4.151 5.25 4.395 1.82 4.053-9.794z"/><path fill="#FF7614" d="M103.435 9.082l1.487 1.882 11.111-4.606-9.224-3.817-.705.092z"/><path fill="#6C4796" d="M116.033 6.359l2.208-5.335-11.432 1.517z"/><path fill="#009FEB" d="M118.241 1.024l-2.208 5.335 6.278 2.598L125.965 0z"/><path fill="#14CF43" d="M122.31 8.956l-6.277-2.597-4.053 9.793 6.328 2.62z"/><path fill="#85D8FF" d="M116.033 6.359l3.698 8.92 2.58-6.323z"/><path fill="#FF85BB" d="M110.965 18.607l1.015-2.455-4.394-1.819z"/><path fill="#85E09C" d="M115.853 24.79l2.455-6.019-6.328-2.619-1.015 2.455z"/><path d="M99.171 17.555L94.642 29.94l-4.917-12.384h-6.121l8.349 18.682-3.36 7.995h5.838l10.86-26.677h-6.12zM78.827 30.006a5.226 5.226 0 01-1.928 1.999 5.19 5.19 0 01-2.707.725c-1.014 0-1.928-.24-2.742-.725a5.136 5.136 0 01-1.91-1.981c-.46-.837-.69-1.787-.69-2.849 0-1.013.236-1.939.707-2.777a5.232 5.232 0 011.946-1.98 5.229 5.229 0 012.69-.726c.99 0 1.892.243 2.706.725a5.273 5.273 0 011.928 1.981c.472.838.708 1.764.708 2.777 0 1.04-.236 1.982-.708 2.831m4.547-7.89A10.415 10.415 0 0079.5 18.42c-1.628-.908-3.397-1.362-5.308-1.362-1.91 0-3.673.454-5.289 1.362a10.31 10.31 0 00-3.84 3.698 9.59 9.59 0 00-1.414 5.058c0 1.841.472 3.54 1.415 5.095a10.303 10.303 0 003.84 3.698c1.615.908 3.378 1.362 5.288 1.362 1.911 0 3.68-.454 5.308-1.362a10.415 10.415 0 003.874-3.698 9.56 9.56 0 001.433-5.094 9.5 9.5 0 00-1.433-5.06M54.946 37.794l10.437-20.238h-5.908l-4.53 9.518-4.528-9.518h-5.873l10.402 20.238zM5.73 25.418c.117-1.038.637-1.917 1.557-2.636.92-.72 2.11-1.08 3.573-1.08.85 0 1.611.183 2.283.55.672.365 1.208.83 1.61 1.396.4.567.636 1.157.707 1.77H5.731zm13.781-3.893c-.98-1.461-2.235-2.57-3.768-3.325a10.836 10.836 0 00-4.291-1.116l.028-.004a11.297 11.297 0 00-6.067 1.331 9.58 9.58 0 00-2.512 1.874C1.103 22.095 0 24.521 0 27.19c0 2.122.698 4.091 1.886 5.72.055.078.107.161.165.239 1.155 1.52 2.54 2.6 4.157 3.237.243.095.483.181.724.263.725.26 1.487.453 2.277.562.57.086 1.132.13 1.687.13 3.844 0 6.876-1.51 9.093-4.529l-4.104-2.37c-4.824 4.801-10.257.645-10.257-1.274h15.315c.023-.117.048-.4.071-.85.024-.447.036-.978.036-1.592-.049-2.004-.562-3.737-1.539-5.2zm17.232 9.705c-.956.98-2.26 1.468-3.91 1.468-1.605 0-2.896-.519-3.875-1.557-.979-1.037-1.467-2.346-1.467-3.927 0-1.627.477-2.954 1.431-3.98.956-1.027 2.26-1.54 3.91-1.54 1.628 0 2.925.514 3.892 1.54.967 1.025 1.451 2.353 1.451 3.98 0 1.699-.478 3.038-1.432 4.016zm1.22-21.034v8.33c-1.443-.911-3.392-1.47-5.538-1.47-.107 0-.212.003-.317.005l-.054-.002c-2.005 0-3.745.45-5.219 1.345a8.882 8.882 0 00-3.378 3.662c-.779 1.546-1.169 3.262-1.169 5.148 0 1.888.39 3.604 1.169 5.148a8.871 8.871 0 003.378 3.662c1.474.897 3.213 1.345 5.22 1.345 1.295 0 2.493-.243 3.59-.725 1.097-.484 1.87-1.032 2.318-1.646v1.946h5.236V10.196h-5.236z" fill="#FF1F39"/></g></svg>
